<?xml version="1.0" encoding="utf-8"?>
<!-- Generator: Adobe Illustrator 16.0.0, SVG Export Plug-In . SVG Version: 6.00 Build 0)  -->
<!DOCTYPE svg PUBLIC "-//W3C//DTD SVG 1.1//EN" "http://www.w3.org/Graphics/SVG/1.1/DTD/svg11.dtd">
<svg version="1.1" id="Layer_1" focusable="false" xmlns="http://www.w3.org/2000/svg" xmlns:xlink="http://www.w3.org/1999/xlink"
	 x="0px" y="0px" width="612px" height="136px" viewBox="0 0 612 136" enable-background="new 0 0 612 136" xml:space="preserve">
<g>
	<path fill="#FF0000" d="M191.214,23.238c-2.239-8.364-8.812-14.938-17.176-17.176C158.894,2,98.139,2,98.139,2
		s-60.755,0-75.9,4.063C13.874,8.301,7.301,14.874,5.062,23.238C1,38.383,1,70,1,70s0,31.617,4.062,46.764
		c2.239,8.361,8.812,14.938,17.176,17.174C37.383,138,98.139,138,98.139,138s60.756,0,75.9-4.063
		c8.364-2.238,14.938-8.814,17.176-17.18c4.063-15.145,4.063-46.762,4.063-46.762S195.26,38.383,191.214,23.238z"/>
	<path fill="#FFFFFF" d="M78.692,99.141l50.473-29.139L78.692,40.863V99.141z"/>
</g>
<g>
	<path d="M219.242,25.884h45.171v11.49h-32.117V62.13h25.185v11.553h-25.185v27.104h32.637v11.744h-45.692V25.884z"/>
	<path d="M265.973,48.419h11.857l8.678,44.053l8.376-44.053h10.57l8.318,44.307l9.257-44.307h9.776l-14.463,64.111h-10.231
		l-8.838-44.434l-8.434,44.434h-10.232L265.973,48.419z"/>
	<path d="M332.459,48.419h11.857l8.678,44.053l8.375-44.053h10.571l8.317,44.307l9.257-44.307h9.776l-14.462,64.111h-10.231
		l-8.838-44.434l-8.434,44.434h-10.232L332.459,48.419z"/>
	<path d="M397.154,25.884h48.175v12.188h-17.618v74.459h-13.054V38.071h-17.503V25.884z"/>
	<path d="M446.079,48.419h12.016v40.752c0,5.672,0.425,9.469,1.275,11.395c0.85,1.926,2.724,2.887,5.622,2.887
		c3.594,0,6.105-1.713,7.535-5.141s2.146-9.775,2.146-19.043v-30.85h12.015v64.111h-11.091v-9.648
		c-3.114,7.49-8.053,11.234-14.816,11.234c-3.459,0-6.294-0.803-8.504-2.412c-2.209-1.607-3.795-3.893-4.756-6.855
		c-0.961-2.961-1.441-8.102-1.441-15.424V48.419z"/>
	<path d="M500.954,25.884h12.016v29.898c3.415-5.671,7.924-8.506,13.527-8.506c6.063,0,10.851,2.846,14.361,8.537
		s5.268,13.361,5.268,23.01c0,23.359-7.181,35.039-21.542,35.039c-6.758,0-11.461-3.342-14.11-10.029
		c-0.89,2.412-1.779,5.313-2.67,8.697h-6.85V25.884z M512.97,85.388c0,12.297,3.408,18.445,10.224,18.445
		c3.522,0,6.088-1.857,7.696-5.578c1.608-3.719,2.412-9.951,2.412-18.699c0-8.41-0.804-14.274-2.412-17.592
		c-1.608-3.316-4.098-4.977-7.467-4.977c-2.948,0-5.428,1.48-7.438,4.438c-2.011,2.959-3.015,6.953-3.015,11.982V85.388z"/>
	<path d="M599.789,82.442h-32.983c0,8.65,1.064,14.42,3.196,17.311c2.132,2.889,4.812,4.334,8.037,4.334
		c5.376,0,8.775-3.977,10.197-11.934l11.032,1.588c-2.888,13.584-10.09,20.375-21.604,20.375c-7.047,0-12.67-2.77-16.867-8.314
		c-4.197-5.543-6.296-13.668-6.296-24.375c0-11.003,2.117-19.509,6.354-25.518s9.897-9.014,16.983-9.014
		c4.967,0,9.146,1.502,12.534,4.506c3.389,3.006,5.776,6.951,7.163,11.839C598.922,68.128,599.673,74.53,599.789,82.442z
		 M587.485,73.491c0-11.299-3.351-16.947-10.051-16.947c-6.277,0-9.725,5.648-10.34,16.947H587.485z"/>
</g>
</svg>
